<svg xmlns="http://www.w3.org/2000/svg" viewBox="0 0 300 200" width="300" height="200" aria-hidden="true">
  <rect width="300" height="200" fill="#d8ecf7"/>
  <rect x="40" y="140" width="220" height="10" rx="3" fill="#0f6f9c" opacity=".5"/>
  <rect x="60" y="150" width="8" height="30" rx="3" fill="#0f6f9c" opacity=".4"/>
  <rect x="220" y="150" width="8" height="30" rx="3" fill="#0f6f9c" opacity=".4"/>
  <circle cx="110" cy="70" r="18" fill="#0f6f9c"/>
  <rect x="90" y="88" width="40" height="50" rx="16" fill="#0f6f9c"/>
  <path d="M126 96q22-22 34-40" fill="none" stroke="#0f6f9c" stroke-width="8" stroke-linecap="round"/>
  <circle cx="162" cy="53" r="7" fill="#0f6f9c"/>
  <g transform="rotate(-24 190 122)">
    <rect x="170" y="117" width="26" height="10" rx="5" fill="#1998d5"/>
    <rect x="196" y="120" width="26" height="4" fill="#1998d5" opacity=".8"/>
    <circle cx="224" cy="122" r="3" fill="#0f6f9c"/>
  </g>
  <circle cx="245" cy="132" r="17" fill="none" stroke="#0f6f9c" stroke-width="6"/>
  <circle cx="245" cy="132" r="6" fill="#0f6f9c"/>
  <path d="M228 138q10 12 6 24" fill="none" stroke="#1998d5" stroke-width="3" stroke-linecap="round"/>
</svg>
